<svg id="Layer_1" data-name="Layer 1" xmlns="http://www.w3.org/2000/svg" viewBox="0 0 16 16"><defs><style>.cls-1{fill:#ccc;}.cls-2{fill:#1b2f77;}</style></defs><circle class="cls-1" cx="12.35" cy="1.5" r="1.5"/><circle class="cls-1" cx="8" cy="14.5" r="1.5"/><path class="cls-2" d="M13.27,11.35a1.51,1.51,0,0,0,.58-1.18A1.46,1.46,0,0,0,13.28,9h0L13,8.6a1.19,1.19,0,0,1-.22-.6A1.23,1.23,0,0,1,13,7.39L13.27,7a1.49,1.49,0,0,0-.92-2.67,1.52,1.52,0,0,0-1.17.56l-.38.32a1.23,1.23,0,0,1-.62.22,1.23,1.23,0,0,1-.61-.22l-.41-.33h0a1.25,1.25,0,0,0-.23-.23h0l-.33-.4a1.19,1.19,0,0,1-.22-.6,1.19,1.19,0,0,1,.22-.6l.32-.38a1.5,1.5,0,1,0-1.84,0l.32.37a1.23,1.23,0,0,1,.22.61,1.19,1.19,0,0,1-.22.6l-.33.4h0a1.36,1.36,0,0,0-.24.24h0l-.39.33a1.29,1.29,0,0,1-.62.22,1.26,1.26,0,0,1-.62-.22L4.82,4.9a1.52,1.52,0,0,0-1.17-.56A1.5,1.5,0,1,0,4.87,6.69l.33-.27a1.26,1.26,0,0,1,.62-.22,1.23,1.23,0,0,1,.61.22l.37.3A1.28,1.28,0,0,0,7.08,7l.32.38A1.23,1.23,0,0,1,7.62,8a1.19,1.19,0,0,1-.22.6L7.07,9h0a1.46,1.46,0,0,0-.57,1.17,1.5,1.5,0,0,0,3,0A1.46,1.46,0,0,0,8.93,9h0L8.6,8.6A1.19,1.19,0,0,1,8.38,8a1.23,1.23,0,0,1,.22-.61c.07-.08.89-.92,1-1a1.23,1.23,0,0,1,.61-.22,1.26,1.26,0,0,1,.62.22c.07,0,.89.88.95,1A1.15,1.15,0,0,1,12,8a1.12,1.12,0,0,1-.23.6c-.07.1-.33.4-.33.4h0a1.5,1.5,0,0,0,0,2.35c.05.05.26.29.32.37a1.18,1.18,0,0,1,.23.61,1.18,1.18,0,0,1-.23.61l-.33.39h0a2.64,2.64,0,0,0-.56,1.17,1.5,1.5,0,1,0,2.42-1.17h0L13,12.94a1.26,1.26,0,0,1-.22-.61,1.19,1.19,0,0,1,.22-.6Z"/><circle class="cls-1" cx="3.76" cy="10.17" r="1.5"/></svg>